<svg width="800" height="600" xmlns="http://www.w3.org/2000/svg">
 <!-- Created with Method Draw - http://github.com/duopixel/Method-Draw/ -->
 <g>
  <title>background</title>
  <rect fill="#fff" id="canvas_background" height="602" width="802" y="-1" x="-1"/>
  <g display="none" overflow="visible" y="0" x="0" height="100%" width="100%" id="canvasGrid">
   <rect fill="url(#gridpattern)" stroke-width="0" y="0" x="0" height="100%" width="100%"/>
  </g>
 </g>
 <g>
  <title>Layer 1</title>
  <path d="m389.5,44.45313c0,1 0,2 0,5c0,1 -0.16019,3.01291 0,4c0.50653,3.12144 2,6 2,9c0,4 0,10 0,13c0,3 0,7 0,11c0,3 1,7 1,11c0,3 0,7 0,9c0,2 0,5 0,7c0,1 0,3 0,4c0,2 1,3 1,4c0,1 0,2 0,3l0,1" id="svg_1" stroke-width="1.5" stroke="#000" fill="none"/>
  <path d="m286.5,131.45313c3,0 5,0 6,0c2,0 3,0 6,0c2,0 4,0 6,0c3,0 6,0 9,0c3,0 6,0 8,0c5,0 7,0 9,0c3,0 5,0 9,0c2,0 5.01498,-0.24437 7,0c4.09222,0.50377 5,1 7,1c2,0 3,0 5,0c1,0 4,0 6,0c1,0 2,0 4,0c3,0 4,0 6,0c1,0 3,0 4,0c2,0 4,0 5,0c2,0 3,0 5,0c2,0 3,0 5,0c1,0 3,0 4,0c2,0 3,0 4,0c1,0 2,0 4,0c3,0 4,0 5,0c1,0 3,0 4,0c1,0 3,0 5,0c1,0 3,0 5,0c2,0 3,0 5,0c1,0 2,0 3,0c1,0 3,0 7,0c1,0 4,0 6,0c2,0 3,0 5,0c1,0 4,0 5,0c1,0 2,0 3,0c1,0 4,0 6,0c1,0 2,0 3,0c1,0 3,0 4,0c1,0 3,0 4,0c2,0 3,0 4,0c2,0 3,0 4,0c1,0 2,1 3,1c2,0 3,0 4,0c1,0 2,0 3,0c1,0 2.02676,-0.22975 3,0c2.17624,0.51375 4,1 5,1l2,0l0,1" id="svg_4" stroke-width="1.5" stroke="#000" fill="none"/>
  <path d="m387.5,186.45313c0,-1 -1.02676,-1.22975 -2,-1c-2.17624,0.51375 -4.02676,1.77025 -5,2c-2.17624,0.51375 -3,1 -5,2c-2,1 -3.38687,1.9176 -6,3c-0.92389,0.38269 -3.186,0.69255 -5,2c-1.14728,0.8269 -2.0979,1.82443 -4,3c-0.85065,0.52573 -3.1731,1.85274 -4,3c-1.30746,1.814 -3.82443,4.09789 -5,6c-0.52573,0.85065 -1.61731,4.07613 -2,5c-1.0824,2.61313 -2.1731,3.85274 -3,5c-1.30746,1.814 -1.81088,4.01805 -2,5c-1.01837,5.28799 -3.49347,6.87856 -4,10c-0.32037,1.97418 0,3 0,6c0,2 0,4 0,7c0,3 0,7 0,8c0,3 0,4 0,6c0,2 0.61731,4.07611 1,5c0.5412,1.30655 0.61731,2.07611 1,3c1.0824,2.61313 2.23462,3.15225 3,5c0.5412,1.30655 3,3 5,5c1,1 3,3 4,4c1,1 1.29291,1.29291 2,2c1.41422,1.41422 3.02676,1.77023 4,2c2.17624,0.51373 3.69345,2.4588 5,3c1.84775,0.76538 2.69345,0.4588 4,1c1.84775,0.76538 1.82376,1.48627 4,2c0.97324,0.22977 2,0 3,0c1,0 3,1 4,1c2,0 2.07611,0.61731 3,1c1.30655,0.5412 2,1 3,1c1,0 2,0 3,0c2,0 3.07611,-0.38269 4,0c1.30655,0.5412 2.07843,0.78986 5,2c2.06586,0.85571 3,1 5,1c1,0 3,0 4,0c2,0 3,0 5,0c1,0 3,0 4,0c2,0 5,0 6,0c2,0 3,0 6,0c1,0 2.87857,-1.49347 6,-2c0.98709,-0.16019 1.90634,-0.10339 3,-1c2.78833,-2.28589 4.82443,-2.0979 6,-4c0.52573,-0.85065 1.85272,-3.1731 3,-4c1.814,-1.30746 4.14429,-3.93414 5,-6c1.21014,-2.92157 2.43268,-6.05414 3,-9c1.01837,-5.28799 3.84723,-7.04132 5,-11c0.88412,-3.03616 2.95517,-5.54915 4,-9c0.86935,-2.87128 1,-5 1,-6c0,-3 1,-6 1,-10c0,-1 0,-5 0,-6c0,-3 0,-5 0,-7c0,-2 0.66251,-4.31001 -1,-7c-0.7435,-1.203 -0.33749,-3.31001 -2,-6c-0.7435,-1.203 -1.69254,-3.186 -3,-5c-0.8269,-1.14726 -1.69254,-2.186 -3,-4c-0.8269,-1.14726 -0.92807,-2.61104 -3,-5c-1.46509,-1.68924 -3.69345,-2.4588 -5,-3c-0.92389,-0.38269 -1.29291,-1.29289 -2,-2c-0.70709,-0.70711 -2.38687,-0.9176 -5,-2c-0.92389,-0.38269 -3,-1 -4,-1c-1,0 -4,-2 -6,-2c-2,0 -4.0535,0.4595 -6,0c-2.17624,-0.51375 -4,-1 -5,-1c-2,0 -3,-1 -4,-1c-1,0 -2,0 -3,0c-1,0 -2,0 -3,0c-1,0 -2.82376,-0.48625 -5,-1c-1.9465,-0.4595 -3,0 -5,0c-3,0 -4,0 -6,0l-1,0l-2,0l-1,0" id="svg_5" stroke-width="1.5" stroke="#000" fill="none"/>
  <path d="m399.5,334.45313c0,1 1.14804,3.22836 0,6c-0.5412,1.30655 -0.56952,3.133 -2,7c-0.77579,2.09717 -1,4 -1,5c0,3 -1,6 -1,9c0,3 -1.4588,7.69345 -2,9c-0.76538,1.84775 0,5 0,7c0,5 0,7 0,9c0,1 0,4 0,5c0,2 0,4 0,6c0,3 0,4 0,6l0,1" id="svg_6" stroke-width="1.5" stroke="#000" fill="none"/>
  <path d="m287.5,424.45313c-1,0 0.58578,-0.58578 2,-2c0.70709,-0.70709 1,-1 2,-1c1,0 2,0 5,0c6,0 14,0 22,0c14,0 24,0 32,0c7,0 13,0 17,0c4,0 9,0 13,0c5,0 8,0 13,0c3,0 9,-1 12,-1c4,0 7.07843,-0.78986 10,-2c2.06586,-0.85571 5,-1 8,-1c3,0 5.90778,-1.49622 10,-2c0.99249,-0.12219 2,0 3,0c1,0 3,-1 4,-1c1,0 2,0 3,0c1,0 2.92578,-0.49756 8,-1c3.98053,-0.39417 6.92578,-1.49756 12,-2c1.99026,-0.19708 3,0 4,0c1,0 2,0 4,0c1,0 4,0 6,0c1,0 2,0 4,0c3,0 5,0 6,0c2,0 3,0 5,0c1,0 3,0 4,0c2,0 3.15225,-0.76538 5,0c1.30655,0.5412 3.02676,0.77023 4,1c2.17624,0.51373 3,1 4,1c2,0 5,1 7,1c1,0 2,0 3,0c1,0 1.69342,0.4588 3,1c0.92389,0.38269 2,1 3,1l1,1" id="svg_7" stroke-width="1.5" stroke="#000" fill="none"/>
  <path d="m387.5,27.45313c-2,0 -3,0 -5,0c-1,0 -3,0 -4,0c-1,0 -2.69345,0.4588 -4,1c-0.92389,0.38268 -2.0535,-0.45951 -4,0c-2.17624,0.51374 -4.08026,1.31074 -7,2c-2.17624,0.51374 -3.93414,2.14429 -6,3c-2.92157,1.21015 -5.82376,2.48626 -8,3c-0.97324,0.22975 -3.31,1.33749 -6,3c-2.40601,1.48699 -5.5387,4.60644 -8,6c-3.58792,2.03145 -7.186,2.69255 -9,4c-2.29453,1.65381 -3.70547,3.34619 -6,5c-1.814,1.30745 -5.85272,4.1731 -7,5c-1.814,1.30745 -4,2 -5,3c-2,2 -3.0979,3.82443 -5,5c-0.85065,0.52573 -3.85272,2.1731 -5,3c-1.814,1.30745 -3.797,3.2565 -5,4c-2.69,1.66251 -5.21167,2.71412 -8,5c-1.09366,0.8966 -3,4 -5,5c-2,1 -4.61105,1.92807 -7,4c-1.68924,1.46507 -5.1731,3.85273 -6,5c-1.30746,1.814 -3,3 -4,4c-1,1 -2.61731,2.07612 -3,3c-1.0824,2.61313 -3.61383,1.297 -6,4c-1.47984,1.67633 -2.75531,3.132 -5,7c-1.80972,3.11848 -4.14429,4.93414 -5,7c-1.21014,2.92156 -3.08398,6.96017 -4,9c-2.20607,4.91257 -4.16042,7.96329 -5,12c-1.23863,5.95532 -4.54863,10.76993 -6,15c-1.65482,4.82303 -2.34315,9.87605 -4,15c-1.26855,3.92311 -1.84723,9.04132 -3,13c-1.76826,6.07233 -2.73145,11.07689 -4,15c-1.65685,5.12395 -1.51126,8.02997 -2,12c-0.50377,4.09221 -1.49623,7.90779 -2,12c-0.61092,4.96254 0,8 0,12c0,4 0,8 0,14c0,6 0,11 0,14c0,4 0,7 0,9c0,2 0.49345,4.87857 1,8c0.64073,3.94836 1.49756,7.92578 2,13c0.29561,2.98541 1.5405,6.0535 2,8c0.51375,2.17624 0.3851,4.37201 3,8c0.8269,1.14728 1.61064,5.15927 3,8c1.58411,3.23892 3.95517,4.54916 5,8c0.86935,2.87128 3,7 5,10c2,3 2.69255,6.186 4,8c1.65381,2.29453 2.34619,3.70547 4,6c1.30745,1.814 2.77025,5.02676 3,6c0.51375,2.17624 2,4 3,6c1,2 1.78986,4.07843 3,7c0.85571,2.06586 1.5405,4.0535 2,6c0.51375,2.17624 2,3 2,5c0,2 0.23462,4.15225 1,6c0.5412,1.30655 1.4588,2.69345 2,4c0.76538,1.84775 0.1731,3.85272 1,5c1.30746,1.814 2.49347,3.87857 3,7c0.16019,0.98709 1.5405,4.0535 2,6c0.51373,2.17624 2.33749,5.31 4,8c0.7435,1.203 1.87766,4.06601 3,6c1.80972,3.11847 2.33749,4.31 4,7c1.487,2.40601 3.95517,3.54916 5,7c0.57956,1.91418 1.69254,4.186 3,6c0.8269,1.14728 1.0979,2.82443 3,4c0.85065,0.52573 2.69254,2.186 4,4c0.8269,1.14728 1.47427,1.14935 2,2c1.17557,1.9021 2.69345,2.4588 4,3c1.84775,0.76538 2,1 4,2c2,1 6.15225,1.23462 8,2c1.30655,0.5412 3.0535,1.5405 5,2c2.17624,0.51373 5,2 7,2c1,0 4,0 7,0c2,0 5,0 7,0c3,0 6,0 10,0c2,0 6,0 8,0c4,0 8,0 14,0c4,0 7,0 11,0c3,0 5,0 7,0c3,0 6,0 9,0c3,0 7,0 14,0c3,0 8,0 12,0c5,0 10,0 15,0c5,0 10,0 14,0c6,0 9,0 17,0c4,0 7,0 11,0c2,0 6,0 9,0c3,0 4.87857,-1.49347 8,-2c2.96127,-0.48056 4.64749,-1.9725 9,-3c1.9465,-0.4595 3.88153,-1.19028 7,-3c1.93402,-1.12234 4.70544,-2.34619 7,-4c3.62799,-2.6149 6.21167,-3.71411 9,-6c3.28101,-2.68979 7,-6 9,-8c2,-2 3.64886,-4.19577 6,-8c2.62866,-4.25327 6.19409,-6.88855 9,-12c1.07599,-1.96014 3.64886,-6.19577 6,-10c2.62866,-4.25327 6.49292,-11.23401 9,-16c1.67859,-3.19098 3.79395,-8.08743 6,-13c2.74805,-6.11951 3.36096,-10.14221 5,-16c1.45105,-5.18597 5,-12 6,-20c1,-8 1,-18 1,-26c0,-8 0,-16 0,-25c0,-13 0,-22 0,-30c0,-9 0,-16 0,-24c0,-11 -1.55762,-19.01224 -2,-27c-0.50079,-9.04153 -3.96326,-16.42401 -6,-27c-1.51288,-7.85565 -3.11688,-14.96765 -5,-22c-2.133,-7.96558 -3.91321,-14.03308 -7,-22c-3.89111,-10.04288 -5.06476,-15.39784 -8,-21c-2.32056,-4.42889 -4.56348,-7.70251 -7,-13c-2.64276,-5.74594 -6.19409,-10.88856 -9,-16c-3.22803,-5.88045 -3.724,-8.22273 -7,-12c-2.77979,-3.20512 -6.14679,-6.86325 -8,-9c-3.276,-3.77727 -5,-6 -7,-8c-2,-2 -2.69342,-2.45881 -4,-3c-2.77164,-1.14805 -4.15225,-1.23463 -6,-2c-1.30655,-0.54119 -3.64749,-2.97252 -8,-4c-1.9465,-0.45951 -5.186,0.30745 -7,-1c-1.14728,-0.8269 -3.69345,-2.45881 -5,-3c-0.92389,-0.38268 -3.54916,-1.95517 -7,-3c-2.87128,-0.86935 -6,-2 -8,-3c-2,-1 -5.15396,-2.05132 -8,-3c-4.74341,-1.58114 -5.54916,-3.95517 -9,-5c-2.87128,-0.86935 -4.82376,-1.48626 -7,-2c-2.91974,-0.68926 -3.82376,-0.48626 -6,-1c-1.9465,-0.45951 -3.22836,1.14805 -6,0c-1.30655,-0.5412 -4.02582,-0.67964 -6,-1c-3.12143,-0.50654 -4,-1 -7,-1c-1,0 -3,-1 -6,-1c-2,0 -4,0 -6,0c-1,0 -2.69345,-0.4588 -4,-1c-2.77164,-1.14805 -6,0 -8,0c-1,0 -3,0 -4,0c-2,0 -3,0 -4,0c-1,0 -2,0 -3,0c-1,0 -2,0 -3,0c-1,0 -2,0 -3,0l-2,0" id="svg_8" stroke-width="1.5" stroke="#000" fill="none"/>
  <path d="m311.5,161.45313c0,1 -0.68927,3.08025 0,6c0.51373,2.17625 2,2 3,2c2,0 2.23462,-2.15224 3,-4c1.0824,-2.61313 2,-3 2,-4c0,-1 0.70709,-2.29289 0,-3c-1.41422,-1.41422 -3,0 -5,0l-1,0" id="svg_9" stroke-width="1.5" stroke="#000" fill="none"/>
  <path d="m491.5,149.45313c-1,0 -2.02676,-0.22975 -3,0c-2.17624,0.51375 -2,2 -3,2c-1,0 -3.4588,0.69344 -4,2c-0.38269,0.92387 0,3 0,5c0,3 -0.17557,6.09789 1,8c2.62866,4.25325 5.82443,5.09789 7,7c0.52573,0.85065 1.82443,1.90211 3,0c0.52573,-0.85065 0,-2 0,-3c0,-3 2,-5 2,-6c0,-2 0,-3 0,-5c0,-1 0,-2 0,-3c0,-1 0,-2 -2,-3l-1,0l-2,-1" id="svg_10" stroke-width="1.5" stroke="#000" fill="none"/>
  <path d="m358.5,78.45313c0,1 0,2 1,2c3,0 6,2 13,2c8,0 19,0 30,0c10,0 15,0 17,0l3,0l1,0" id="svg_11" stroke-width="1.5" stroke="#000" fill="none"/>
  <path d="m364.5,43.45313c3,0 6,0 17,0c13,0 32,0 42,0c7,0 11,0 15,0c2,0 5,0 6,0l3,0l1,0l1,0" id="svg_12" stroke-width="1.5" stroke="#000" fill="none"/>
  <path d="m266.5,81.45313c-1,0 -3,0 -4,0c-4,0 -9.133,0.4305 -13,-1c-4.19435,-1.55159 -7.42215,-4.19075 -9,-8c-2.23141,-5.3871 -4,-11 -4,-13c0,-4 -1.53073,-8.30448 0,-12c1.62358,-3.91969 10.32864,-7.10496 25,-13c19.50793,-7.83841 25,-13 28,-13c1,0 2,0 3,0c6,0 10.25659,3.41886 15,5c2.84604,0.94868 3,1 4,2l2,1" id="svg_13" stroke-width="1.5" stroke="#000" fill="none"/>
  <path d="m492.5,31.45313c0,-1 1,-2 2,-3c1,-1 4.02249,-1.63345 7,-2c4.09222,-0.50377 10.8446,-3.54692 17,-5c6.8819,-1.6246 15,-2 22,-2c4,0 6,0 7,0c2,0 4.18878,-0.58471 5,0c2.56537,1.84902 2.55786,8.14344 6,18c1.77545,5.08406 3,8 3,12c0,3 0.23865,8.04468 -1,14c-0.8396,4.03672 -4,8 -7,11l-1,2l-1,1l-1,1" id="svg_14" stroke-width="1.5" stroke="#000" fill="none"/>
  <path d="m278.5,297.45313c-12,1 -45.11542,7.59833 -91,21c-63.16371,18.44846 -109.07584,35.40234 -132,52c-12.65238,9.16064 -13,11 -12,12l13,0" id="svg_15" stroke-width="1.5" stroke="#000" fill="none"/>
  <path d="m271.5,330.45313c-2,0 -11.95151,1.10248 -33,11c-27.93629,13.13632 -61.10204,24.05338 -87,40c-18.90681,11.64185 -26,22 -28,25l0,4l0,2l0,1" id="svg_16" stroke-width="1.5" stroke="#000" fill="none"/>
  <path d="m284.5,358.45313c1,0 0.31494,2.61011 -7,6c-10.61978,4.92142 -20.28009,8.54056 -32,16c-13.33878,8.48981 -24.70012,19.33325 -38,31c-11.74277,10.30084 -20.46873,16.53976 -22,24c-0.40213,1.95917 0,4 0,6l0,2l0,1" id="svg_17" stroke-width="1.5" stroke="#000" fill="none"/>
  <path d="m552.5,283.45313c5,0 23.89636,4.31888 45,11c19.9068,6.30225 37.7561,11.37689 52,19c17.11902,9.16183 26,19 38,29l8,6l4,1l1,1" id="svg_18" stroke-width="1.5" stroke="#000" fill="none"/>
  <path d="m545.5,320.45313c3,1 10.27106,3.54059 19,9c20.69824,12.9454 42.1554,29.78064 62,44c15.12024,10.83417 22,18 24,22l1,3l1,1" id="svg_19" stroke-width="1.5" stroke="#000" fill="none"/>
  <path d="m532.5,362.45313c6,4 19.89429,17.13123 36,30c13.90961,11.11407 21.20679,18.81265 23,21c2.28589,2.78833 2,4 3,7l1,2l2,3l1,2" id="svg_20" stroke-width="1.5" stroke="#000" fill="none"/>
 </g>
</svg>